<svg width="115" height="40" viewBox="0 0 115 40" fill="none" xmlns="http://www.w3.org/2000/svg">
<path d="M28.8889 40.0001H11.1111C4.975 40.0001 0 35.0251 0 28.889V15.5556C0 9.41952 4.975 4.44452 11.1111 4.44452H28.8889C35.025 4.44452 40 9.41952 40 15.5556V28.889C40 35.0251 35.025 40.0001 28.8889 40.0001Z" fill="url(#paint0_linear)"/>
<path d="M28.8889 35.5556H11.1111C4.975 35.5556 0 30.5806 0 24.4444V11.1111C0 4.975 4.975 0 11.1111 0H28.8889C35.025 0 40 4.975 40 11.1111V24.4444C40 30.5806 35.025 35.5556 28.8889 35.5556Z" fill="url(#paint1_linear)"/>
<path d="M34.0318 10.9541V14.3861C34.0318 14.3972 34.0318 14.4069 34.0304 14.418C34.0235 15.5236 33.5971 16.6278 32.754 17.4708L21.6165 28.6083C19.2499 30.9736 15.4152 30.9736 13.0485 28.6083L8.07905 23.6389C7.21516 22.775 6.79016 21.6389 6.80405 20.5069H6.80127V17.2389H7.95127V17.6055C7.99155 17.5597 8.0346 17.5153 8.07905 17.4708C8.93044 16.6194 10.0471 16.193 11.1638 16.193C12.2804 16.193 13.3971 16.6194 14.2485 17.4708L17.3332 20.5541L26.586 11.3014C28.2263 9.66108 30.8485 9.60136 32.561 11.1208V10.9541H34.0318Z" fill="url(#paint2_linear)"/>
<path d="M34.0323 14.3861V14.4212H34.0308C34.0323 14.409 34.0323 14.3983 34.0323 14.3861Z" fill="url(#paint3_linear)"/>
<path d="M32.7543 14.2486L21.6168 25.3861C19.2516 27.7514 15.4154 27.7514 13.0488 25.3861L8.07933 20.4167C6.37655 18.7139 6.37655 15.9514 8.07933 14.2486C9.78211 12.5458 12.5446 12.5458 14.2474 14.2486L17.3321 17.3333L26.5849 8.08055C28.2877 6.37777 31.0502 6.37777 32.7529 8.08055C34.4585 9.78333 34.4585 12.5444 32.7543 14.2486Z" fill="white"/>
<path d="M62.3917 19.5994V15.1625H59.1774V10.8487L54.4965 12.2353V15.1625H52V19.5994H54.4965V25.0532C54.4965 29.3669 56.2753 31.1849 62.3917 30.5686V26.3782C60.3321 26.5014 59.1774 26.3782 59.1774 25.0532V19.5994H62.3917Z" fill="white"/>
<path d="M69.3209 19.6611C69.3209 19.1064 69.8202 18.7983 70.6316 18.7983C71.6614 18.7983 72.2855 19.3529 72.7224 20.1541L76.7168 18.028C75.4061 15.8403 73.1593 14.7311 70.6316 14.7311C67.3861 14.7311 64.5152 16.4258 64.5152 19.7843C64.5152 25.1148 72.1919 24.2213 72.1919 25.916C72.1919 26.5322 71.6302 26.8711 70.5068 26.8711C69.1337 26.8711 68.2599 26.2241 67.8542 25.0532L63.7974 27.3333C65.0145 29.8291 67.3861 31 70.5068 31C73.877 31 76.9976 29.4902 76.9976 25.9468C76.9976 20.2465 69.3209 21.4174 69.3209 19.6611Z" fill="white"/>
<path d="M94.3137 30.5686L88.4781 22.8655L94.1577 15.1625H88.6966L84.0156 21.9104V9H79.3347V30.5686H84.0156V23.7591L89.0086 30.5686H94.3137Z" fill="white"/>
<path d="M99.5215 19.6611C99.5215 19.1064 100.021 18.7983 100.832 18.7983C101.862 18.7983 102.486 19.3529 102.923 20.1541L106.917 18.028C105.607 15.8403 103.36 14.7311 100.832 14.7311C97.5867 14.7311 94.7157 16.4258 94.7157 19.7843C94.7157 25.1148 102.392 24.2213 102.392 25.916C102.392 26.5322 101.831 26.8711 100.707 26.8711C99.3342 26.8711 98.4605 26.2241 98.0548 25.0532L93.998 27.3333C95.215 29.8291 97.5867 31 100.707 31C104.078 31 107.198 29.4902 107.198 25.9468C107.198 20.2465 99.5215 21.4174 99.5215 19.6611Z" fill="white"/>
<path d="M112.035 31C113.658 31 115 29.6751 115 28.0728C115 26.4706 113.658 25.1457 112.035 25.1457C110.413 25.1457 109.071 26.4706 109.071 28.0728C109.071 29.6751 110.413 31 112.035 31Z" fill="white"/>
<defs>
<linearGradient id="paint0_linear" x1="4.36549" y1="37.8568" x2="35.6345" y2="6.58778" gradientUnits="userSpaceOnUse">
<stop stop-color="#8230A0"/>
<stop offset="0.4585" stop-color="#C1538B"/>
<stop offset="1" stop-color="#DB7D61"/>
</linearGradient>
<linearGradient id="paint1_linear" x1="4.36549" y1="33.4123" x2="35.6345" y2="2.14326" gradientUnits="userSpaceOnUse">
<stop stop-color="#BB3FDD"/>
<stop offset="0.520201" stop-color="#FB6DA9"/>
<stop offset="1" stop-color="#FF9F7C"/>
</linearGradient>
<linearGradient id="paint2_linear" x1="-1.96723" y1="20.2027" x2="51.1503" y2="20.2027" gradientUnits="userSpaceOnUse">
<stop stop-color="#9533B5"/>
<stop offset="0.4585" stop-color="#D3578F"/>
<stop offset="1" stop-color="#DB7D61"/>
</linearGradient>
<linearGradient id="paint3_linear" x1="34.0228" y1="14.4132" x2="34.0411" y2="14.395" gradientUnits="userSpaceOnUse">
<stop stop-color="#9533B5"/>
<stop offset="0.4585" stop-color="#D3578F"/>
<stop offset="1" stop-color="#DB7D61"/>
</linearGradient>
</defs>
</svg>
